<svg width="200" height="200" viewBox="0 0 200 200" xmlns="http://www.w3.org/2000/svg">
  <!-- Orange background -->
  <rect width="200" height="200" fill="#FF8C00"/>
  
  <!-- Teal accent stripe -->
  <path d="M20 60 Q100 40 180 60 L180 80 Q100 60 20 80 Z" fill="#20B2AA"/>
  
  <!-- Travel elements -->
  <!-- Suitcase 1 -->
  <rect x="140" y="30" width="20" height="15" fill="#8B4513" stroke="#654321" stroke-width="1"/>
  <rect x="142" y="32" width="16" height="2" fill="#654321"/>
  <circle cx="145" cy="37.5" r="1" fill="#654321"/>
  <rect x="147" y="26" width="6" height="4" fill="#8B4513"/>
  
  <!-- Airplane -->
  <g transform="translate(165, 35)">
    <ellipse cx="0" cy="0" rx="8" ry="2" fill="#FFFFFF"/>
    <rect x="-6" y="-1" width="12" height="2" fill="#FFFFFF"/>
    <polygon points="-8,0 -12,-2 -10,0 -12,2" fill="#FFFFFF"/>
    <polygon points="6,-1 10,-3 8,0 10,3 6,1" fill="#FFFFFF"/>
  </g>
  
  <!-- Cloud -->
  <g transform="translate(155, 20)">
    <circle cx="0" cy="0" r="3" fill="#FFFFFF"/>
    <circle cx="4" cy="0" r="2" fill="#FFFFFF"/>
    <circle cx="2" cy="-2" r="2" fill="#FFFFFF"/>
  </g>
  
  <!-- Main text TRAVEL -->
  <text x="100" y="110" font-family="Arial Black, sans-serif" font-size="24" font-weight="900" text-anchor="middle" fill="#FFFFFF" stroke="#000000" stroke-width="2">TRAVEL</text>
  
  <!-- Main text JANAKPUR -->
  <text x="100" y="140" font-family="Arial Black, sans-serif" font-size="20" font-weight="900" text-anchor="middle" fill="#FFFFFF" stroke="#000000" stroke-width="2">JANAKPUR</text>
  
  <!-- Suitcase 2 bottom -->
  <rect x="40" y="160" width="18" height="12" fill="#8B4513" stroke="#654321" stroke-width="1"/>
  <rect x="42" y="162" width="14" height="2" fill="#654321"/>
  <circle cx="45" cy="166" r="1" fill="#654321"/>
  <rect x="46" y="156" width="6" height="4" fill="#8B4513"/>
  
  <!-- Bottom accent stripe -->
  <path d="M20 150 Q100 170 180 150 L180 170 Q100 190 20 170 Z" fill="#20B2AA"/>
</svg>